<?xml version="1.0" encoding="UTF-8" standalone="no"?>
<!DOCTYPE svg PUBLIC "-//W3C//DTD SVG 1.1//EN" "http://www.w3.org/Graphics/SVG/1.1/DTD/svg11.dtd">
<svg version="1.1" xmlns="http://www.w3.org/2000/svg" xmlns:xlink="http://www.w3.org/1999/xlink" preserveAspectRatio="xMidYMid meet" viewBox="0 0 640 640" width="640" height="640"><defs><path d="M632.21 55.41C637.73 55.41 642.21 59.88 642.21 65.41C642.21 172.33 642.21 483.08 642.21 590C642.21 595.52 637.73 600 632.21 600C505.77 600 136.44 600 10 600C4.48 600 0 595.52 0 590C0 483.08 0 172.33 0 65.41C0 59.88 4.48 55.41 10 55.41C136.44 55.41 505.77 55.41 632.21 55.41Z" id="ddmHA9rCv"></path><path d="M89.5 521.71C81.7 530.88 69.06 530.88 61.27 521.71C59.38 519.5 44.3 501.77 42.42 499.55C34.63 490.41 34.62 475.58 42.38 466.41C50.92 456.32 93.62 405.89 170.48 315.12C93.62 224.35 50.92 173.92 42.38 163.83C34.62 154.66 34.63 139.84 42.42 130.69C44.3 128.47 59.38 110.75 61.27 108.53C69.06 99.37 81.7 99.37 89.5 108.53C105.66 127.53 234.96 279.53 251.12 298.53C258.92 307.69 258.92 322.55 251.12 331.71C218.8 369.71 105.66 502.71 89.5 521.71ZM568.84 479.37C568.84 466.41 559.9 455.9 548.88 455.9C523.59 455.9 321.33 455.9 296.05 455.9C285.03 455.9 276.09 466.41 276.09 479.37C276.09 482.5 276.09 507.52 276.09 510.65C276.09 523.61 285.03 534.12 296.05 534.12C321.33 534.12 523.59 534.12 548.88 534.12C559.9 534.12 568.84 523.61 568.84 510.65C568.84 504.4 568.84 482.5 568.84 479.37Z" id="by1u5LFNM"></path></defs><g><g><g><g><filter id="shadow7552672" x="-12" y="43.41" width="666.21" height="568.59" filterUnits="userSpaceOnUse" primitiveUnits="userSpaceOnUse"><feFlood></feFlood><feComposite in2="SourceAlpha" operator="in"></feComposite><feGaussianBlur stdDeviation="1.73"></feGaussianBlur><feOffset dx="0" dy="0" result="afterOffset"></feOffset><feFlood flood-color="#323bc9" flood-opacity="0.5"></feFlood><feComposite in2="afterOffset" operator="in"></feComposite><feMorphology operator="dilate" radius="1"></feMorphology><feComposite in2="SourceAlpha" operator="out"></feComposite></filter><path d="M632.21 55.41C637.73 55.41 642.21 59.88 642.21 65.41C642.21 172.33 642.21 483.08 642.21 590C642.21 595.52 637.73 600 632.21 600C505.77 600 136.44 600 10 600C4.48 600 0 595.52 0 590C0 483.08 0 172.33 0 65.41C0 59.88 4.48 55.41 10 55.41C136.44 55.41 505.77 55.41 632.21 55.41Z" id="k6Bu7NHydB" fill="white" fill-opacity="1" filter="url(#shadow7552672)"></path></g><use xlink:href="#ddmHA9rCv" opacity="1" fill="#48ef12" fill-opacity="1"></use><g><use xlink:href="#ddmHA9rCv" opacity="1" fill-opacity="0" stroke="#7f6634" stroke-width="0" stroke-opacity="1"></use></g><g><filter id="shadow5540200" x="-9" y="46.41" width="660.21" height="563.59" filterUnits="userSpaceOnUse" primitiveUnits="userSpaceOnUse"><feFlood></feFlood><feComposite in2="SourceAlpha" operator="out"></feComposite><feGaussianBlur stdDeviation="1"></feGaussianBlur><feOffset dx="0" dy="1" result="afterOffset"></feOffset><feFlood flood-color="#ffffff" flood-opacity="0.8"></feFlood><feComposite in2="afterOffset" operator="in"></feComposite><feMorphology operator="dilate" radius="1"></feMorphology><feComposite in2="SourceAlpha" operator="in"></feComposite></filter><path d="M632.21 55.41C637.73 55.41 642.21 59.88 642.21 65.41C642.21 172.33 642.21 483.08 642.21 590C642.21 595.52 637.73 600 632.21 600C505.77 600 136.44 600 10 600C4.48 600 0 595.52 0 590C0 483.08 0 172.33 0 65.41C0 59.88 4.48 55.41 10 55.41C136.44 55.41 505.77 55.41 632.21 55.41Z" id="f10WjwZfaI" fill="white" fill-opacity="1" filter="url(#shadow5540200)"></path></g></g><g><use xlink:href="#by1u5LFNM" opacity="1" fill="#f2eeee" fill-opacity="1"></use><g><use xlink:href="#by1u5LFNM" opacity="1" fill-opacity="0" stroke="#000000" stroke-width="1" stroke-opacity="0"></use></g></g></g></g></svg>