<svg width="337" height="328" viewBox="0 0 337 328" fill="none" xmlns="http://www.w3.org/2000/svg">
    <g filter="url(#filter0_d_10_190)">
        <path
            d="M4 48.6C4 31.232 4 22.548 7.48703 15.9621C10.301 10.6474 14.6474 6.30104 19.9621 3.48703C26.548 0 35.232 0 52.6 0H284.4C301.768 0 310.452 0 317.038 3.48703C322.353 6.30104 326.699 10.6474 329.513 15.9621C333 22.548 333 31.232 333 48.6V271.4C333 288.768 333 297.452 329.513 304.038C326.699 309.353 322.353 313.699 317.038 316.513C310.452 320 301.768 320 284.4 320H52.6C35.232 320 26.548 320 19.9621 316.513C14.6474 313.699 10.301 309.353 7.48703 304.038C4 297.452 4 288.768 4 271.4V48.6Z"
            fill="#03C617" />
    </g>
    <path
        d="M148.851 182.586L65.3447 273.092C61.3172 277.457 54.7877 277.457 50.7606 273.092L41.0205 262.536C36.9999 258.178 36.9922 251.116 41.0033 246.748L107.185 174.683L41.0037 102.618C36.9926 98.2498 37.0003 91.1874 41.0209 86.8298L50.7606 76.2738C54.7881 71.9087 61.3176 71.9087 65.3447 76.2738L148.851 166.78C152.879 171.144 152.879 178.221 148.851 182.586ZM313 267.823V252.921C313 246.748 308.383 241.744 302.687 241.744H172.063C166.367 241.744 161.75 246.748 161.75 252.921V267.823C161.75 273.996 166.367 279 172.063 279H302.687C308.383 279 313 273.996 313 267.823Z"
        fill="white" />
    <path
        d="M148.851 166.586L65.3447 257.092C61.3172 261.457 54.7877 261.457 50.7606 257.092L41.0205 246.536C36.9999 242.178 36.9922 235.116 41.0033 230.748L107.185 158.683L41.0037 86.6176C36.9926 82.2498 37.0003 75.1874 41.0209 70.8298L50.7606 60.2738C54.7881 55.9087 61.3176 55.9087 65.3447 60.2738L148.851 150.78C152.879 155.144 152.879 162.221 148.851 166.586ZM313 251.823V236.921C313 230.748 308.383 225.744 302.688 225.744H172.063C166.367 225.744 161.75 230.748 161.75 236.921V251.823C161.75 257.996 166.367 263 172.063 263H302.688C308.383 263 313 257.996 313 251.823Z"
        fill="#0B0C0B" />
    <defs>
        <filter id="filter0_d_10_190" x="0" y="0" width="337" height="328"
            filterUnits="userSpaceOnUse" color-interpolation-filters="sRGB">
            <feFlood flood-opacity="0" result="BackgroundImageFix" />
            <feColorMatrix in="SourceAlpha" type="matrix"
                values="0 0 0 0 0 0 0 0 0 0 0 0 0 0 0 0 0 0 127 0" result="hardAlpha" />
            <feOffset dy="4" />
            <feGaussianBlur stdDeviation="2" />
            <feComposite in2="hardAlpha" operator="out" />
            <feColorMatrix type="matrix" values="0 0 0 0 0 0 0 0 0 0 0 0 0 0 0 0 0 0 0.25 0" />
            <feBlend mode="normal" in2="BackgroundImageFix" result="effect1_dropShadow_10_190" />
            <feBlend mode="normal" in="SourceGraphic" in2="effect1_dropShadow_10_190" result="shape" />
        </filter>
    </defs>
</svg>