<svg width="408" height="408" viewBox="0 0 408 408" fill="none" xmlns="http://www.w3.org/2000/svg">
<g filter="url(#filter0_d_43_68)">
<rect x="4" width="400" height="400" rx="200" fill="#03C617"/>
<rect x="19" y="15" width="370" height="370" rx="185" stroke="#3100C4" stroke-width="30"/>
</g>
<path d="M276.917 187.293C286.817 189.026 298.742 188.368 297.05 194.935C293.058 210.385 275.35 204.66 272.225 204.835C269.1 205.001 276.917 187.293 276.917 187.293Z" fill="#66757F"/>
<path d="M279.517 189.043C295.142 191.126 300.692 192.51 289.233 197.026C282.8 199.568 270.542 237.051 261.475 231.343C252.417 225.635 279.517 189.043 279.517 189.043Z" fill="#292F33"/>
<path d="M131.125 187.293C121.225 189.026 109.3 188.368 110.992 194.935C114.983 210.385 132.692 204.66 135.817 204.835C138.942 205.001 131.125 187.293 131.125 187.293Z" fill="#66757F"/>
<path d="M128.525 189.043C112.9 191.126 107.35 192.51 118.808 197.026C125.242 199.568 137.5 237.051 146.567 231.343C155.633 225.635 128.525 189.043 128.525 189.043Z" fill="#292F33"/>
<path d="M329 317.001V308.668C329 295.407 323.732 282.689 314.355 273.313C304.979 263.936 292.261 258.668 279 258.668H129C115.739 258.668 103.021 263.936 93.6447 273.313C84.2678 282.689 79 295.407 79 308.668V317.001H329Z" fill="#04010E"/>
<path d="M154 246.018C167.933 259.143 185.217 267.001 204 267.001C222.783 267.001 240.058 259.135 254 246.018V233.668H154V246.018Z" fill="#EF9645"/>
<path d="M121.125 108.926C104.85 108.926 101.917 135.292 115.592 138.876C115.592 138.876 104.2 166.542 131.867 166.542C127.308 152.542 118.85 129.759 125.358 113.159M286.858 108.926C303.133 108.926 306.067 135.292 292.392 138.876C292.392 138.876 303.783 166.542 276.117 166.542C280.675 152.542 289.133 129.759 282.625 113.159" fill="#D8A254"/>
<path d="M204 250.333C250.024 250.333 287.333 203.696 287.333 146.167C287.333 88.637 250.024 42 204 42C157.976 42 120.667 88.637 120.667 146.167C120.667 203.696 157.976 250.333 204 250.333Z" fill="#E3A871"/>
<path d="M170.667 158.668C168.457 158.668 166.337 157.79 164.774 156.227C163.211 154.664 162.333 152.545 162.333 150.335V142.001C162.333 139.791 163.211 137.672 164.774 136.109C166.337 134.546 168.457 133.668 170.667 133.668C172.877 133.668 174.996 134.546 176.559 136.109C178.122 137.672 179 139.791 179 142.001V150.335C179 152.545 178.122 154.664 176.559 156.227C174.996 157.79 172.877 158.668 170.667 158.668ZM237.333 158.668C235.123 158.668 233.004 157.79 231.441 156.227C229.878 154.664 229 152.545 229 150.335V142.001C229 139.791 229.878 137.672 231.441 136.109C233.004 134.546 235.123 133.668 237.333 133.668C239.543 133.668 241.663 134.546 243.226 136.109C244.789 137.672 245.667 139.791 245.667 142.001V150.335C245.667 152.545 244.789 154.664 243.226 156.227C241.663 157.79 239.543 158.668 237.333 158.668Z" fill="#662113"/>
<path d="M212.333 187.835C212.333 188.94 211.894 190 211.113 190.781C210.332 191.562 209.272 192.001 208.167 192.001H199.833C198.728 192.001 197.668 191.562 196.887 190.781C196.106 190 195.667 188.94 195.667 187.835C195.667 186.73 196.106 185.67 196.887 184.888C197.668 184.107 198.728 183.668 199.833 183.668H208.167C209.272 183.668 210.332 184.107 211.113 184.888C211.894 185.67 212.333 186.73 212.333 187.835Z" fill="#C1694F"/>
<path fill-rule="evenodd" clip-rule="evenodd" d="M117.808 140.234C119.042 141.459 125.208 145.159 126.442 148.851C127.675 152.543 130.15 173.468 137.55 179.626C145.183 185.976 173.967 183.609 179.483 180.868C191.817 174.718 193.333 157.551 195.517 148.851C196.75 143.926 204.15 143.926 204.15 143.926C204.15 143.926 211.55 143.926 212.783 148.851C214.967 157.551 216.483 174.718 228.817 180.859C234.333 183.609 263.117 185.976 270.767 179.634C278.158 173.476 280.625 152.551 281.858 148.851C283.075 145.159 289.258 141.468 290.483 140.234C291.717 139.001 291.717 134.076 290.483 132.843C288.017 130.384 258.917 128.184 227.583 131.609C221.333 132.293 218.958 134.068 204.15 134.068C189.35 134.068 186.967 132.284 180.717 131.609C149.392 128.184 120.283 130.376 117.817 132.843C116.575 134.076 116.575 139.009 117.808 140.234Z" fill="#04010E"/>
<path d="M121.708 76.5815C121.708 76.5815 119.458 85.7815 118.325 92.1732C117.192 98.5732 120.208 102.973 140.867 107.373C168.258 113.207 229.858 113.14 266.35 104.182C281.008 100.582 290.4 98.1815 289.275 90.9898C287.883 82.0898 287.642 82.1065 284.767 72.5898C284.767 72.5898 272.458 76.7732 256.208 80.5898C234.042 85.7898 173.175 88.1815 143.867 81.7898C128.25 78.3732 121.708 76.5815 121.708 76.5815ZM120.575 192.857C117.625 194.065 144.917 204.34 182.908 205.007C222.667 205.707 234.858 208.257 225.792 217.165C216.242 226.54 218.692 241.282 219.367 245.648C220.042 250.015 236.425 261.615 237.767 266.982C239.108 272.357 227.525 316.657 227.525 316.657L154.783 314.557C133.408 240.857 130.758 243.715 120.575 201.19C118.567 192.79 120.575 192.857 120.575 192.857Z" fill="#04010E"/>
<path d="M112.242 193.199C109.292 194.416 136.583 204.683 174.575 205.349C214.333 206.049 226.525 208.599 217.458 217.508C207.908 226.883 211.925 241.624 212.6 245.991C213.275 250.358 228.092 261.958 229.442 267.333C230.775 272.699 219.183 316.999 219.183 316.999L146.442 314.899C125.067 241.199 122.417 244.058 112.233 201.533C110.233 193.133 112.242 193.199 112.242 193.199Z" fill="black"/>
<path d="M287.767 192.859C290.717 194.068 263.425 204.343 225.442 205.009C185.683 205.709 173.492 208.259 182.558 217.168C192.108 226.543 207.358 241.268 206.692 245.634C206.017 250.001 171.925 261.618 170.583 266.984C169.242 272.359 180.825 316.659 180.825 316.659L253.567 314.559C274.942 240.859 277.592 243.718 287.767 201.193C289.775 192.793 287.767 192.859 287.767 192.859Z" fill="#292F33"/>
<path d="M295.317 192.859C298.267 194.068 270.975 204.343 232.992 205.009C193.233 205.709 181.042 208.259 190.108 217.168C199.658 226.543 214.917 241.268 214.242 245.634C213.567 250.001 179.475 261.618 178.133 266.984C176.792 272.359 188.375 316.659 188.375 316.659L260.517 316.743C281.892 243.043 285.142 243.718 295.325 201.193C297.325 192.793 295.317 192.859 295.317 192.859Z" fill="black"/>
<path d="M119.483 86.9596C119.483 86.9596 130.808 12.7846 168.917 17.1929C198.183 20.5762 209.667 24.0679 234.192 18.0012C250.417 13.9846 268.067 27.4679 278.708 54.4929C282.96 65.4423 286.369 76.6999 288.908 88.1679C288.908 88.1679 321.725 84.9596 323.617 102.601C325.517 120.243 287.333 141.901 191.208 141.901C137.333 141.893 81.75 122.251 79.1083 105.81C76.4667 89.3679 119.483 86.9596 119.483 86.9596Z" fill="black"/>
<defs>
<filter id="filter0_d_43_68" x="0" y="0" width="408" height="408" filterUnits="userSpaceOnUse" color-interpolation-filters="sRGB">
<feFlood flood-opacity="0" result="BackgroundImageFix"/>
<feColorMatrix in="SourceAlpha" type="matrix" values="0 0 0 0 0 0 0 0 0 0 0 0 0 0 0 0 0 0 127 0" result="hardAlpha"/>
<feOffset dy="4"/>
<feGaussianBlur stdDeviation="2"/>
<feComposite in2="hardAlpha" operator="out"/>
<feColorMatrix type="matrix" values="0 0 0 0 0 0 0 0 0 0 0 0 0 0 0 0 0 0 0.25 0"/>
<feBlend mode="normal" in2="BackgroundImageFix" result="effect1_dropShadow_43_68"/>
<feBlend mode="normal" in="SourceGraphic" in2="effect1_dropShadow_43_68" result="shape"/>
</filter>
</defs>
</svg>
