<svg width="408" height="408" viewBox="0 0 408 408" fill="none" xmlns="http://www.w3.org/2000/svg">
<g filter="url(#filter0_d_43_91)">
<rect x="4" width="400" height="400" rx="200" fill="#0D0D0E"/>
<rect x="19" y="15" width="370" height="370" rx="185" stroke="#DADE00" stroke-width="30"/>
</g>
<g clip-path="url(#clip0_43_91)">
<path d="M81.227 51.2243L81.227 51.2242C83.1473 47.1589 86.4722 45.3055 89.5921 45.1618C92.6978 45.0188 96.0608 46.5433 98.1963 50.3465L98.1964 50.3468C102.084 57.2687 98.6261 65.7373 93.0348 67.9714L89.91 69.22L86.7429 67.9866C81.4988 65.9441 77.9075 58.2517 81.227 51.2243ZM234.601 179.022L234.601 179.022C231.301 176.887 229.428 172.976 229.428 168.708C229.428 164.439 231.301 160.527 234.601 158.393C237.781 156.336 241.259 156.566 244.116 158.414C247.028 160.298 249.322 163.936 249.322 168.707C249.322 173.478 247.028 177.117 244.116 179.001C241.259 180.849 237.78 181.079 234.601 179.022ZM164.851 179.022L164.851 179.022C161.551 176.887 159.678 172.976 159.678 168.708C159.678 164.439 161.551 160.527 164.851 158.393L164.851 158.393C168.03 156.336 171.509 156.566 174.366 158.414C177.278 160.298 179.572 163.937 179.572 168.707C179.572 173.478 177.278 177.117 174.366 179.001C171.509 180.849 168.03 181.079 164.851 179.022ZM154.426 197.096L154.426 197.096C164.502 203.613 175.981 202.743 184.768 197.059C193.499 191.411 199.536 181.087 199.536 168.709C199.536 156.33 193.499 146.006 184.768 140.358C175.981 134.674 164.502 133.804 154.426 140.322C144.47 146.762 139.714 157.914 139.714 168.709C139.714 179.504 144.47 190.656 154.426 197.096ZM259.322 230.199L259.322 225.2H254.322H154.678H149.678V230.2V252.56V257.56H154.678H254.322H259.322L259.322 252.56L259.322 230.199ZM224.176 197.096L224.176 197.096C234.252 203.613 245.731 202.743 254.518 197.059C263.249 191.411 269.286 181.087 269.286 168.709C269.286 156.33 263.249 146.006 254.518 140.358C245.731 134.674 234.252 133.804 224.176 140.322C214.22 146.762 209.464 157.914 209.464 168.709C209.464 179.504 214.22 190.656 224.176 197.096ZM335.912 163.334C337.38 165.697 338.536 169.204 339 174.511V218.718C338.351 224.055 337.594 228.708 333.981 232.047C330.695 235.085 323.909 237.953 309.143 236.84V156.73C312.948 156.589 316.394 156.528 319.529 156.664C323.935 156.856 327.37 157.428 330.041 158.506C332.59 159.536 334.486 161.04 335.912 163.334ZM99.8572 156.731V236.84C85.0908 237.953 78.3049 235.085 75.0185 232.047C71.4064 228.708 70.6487 224.055 70 218.718V174.512C70.4643 169.204 71.6198 165.697 73.0881 163.335C74.5135 161.041 76.41 159.536 78.9592 158.507C81.6294 157.429 85.0645 156.857 89.4707 156.665C92.6059 156.529 96.0521 156.589 99.8572 156.731ZM79.9644 302.281H329.036V337.001H79.9644V302.281ZM170.943 68.6764C175.811 43.9093 191.127 33.6852 204.84 34.0076C218.668 34.3328 233.7 45.3901 238.118 68.6764H170.943ZM289.178 129.577V281.101H119.822V129.577C119.822 107.085 135.956 89.857 154.679 89.857H254.322C273.046 89.857 289.178 107.084 289.178 129.577Z" fill="#DADE00" stroke="#66757F" stroke-width="10"/>
</g>
<defs>
<filter id="filter0_d_43_91" x="0" y="0" width="408" height="408" filterUnits="userSpaceOnUse" color-interpolation-filters="sRGB">
<feFlood flood-opacity="0" result="BackgroundImageFix"/>
<feColorMatrix in="SourceAlpha" type="matrix" values="0 0 0 0 0 0 0 0 0 0 0 0 0 0 0 0 0 0 127 0" result="hardAlpha"/>
<feOffset dy="4"/>
<feGaussianBlur stdDeviation="2"/>
<feComposite in2="hardAlpha" operator="out"/>
<feColorMatrix type="matrix" values="0 0 0 0 0 0 0 0 0 0 0 0 0 0 0 0 0 0 0.25 0"/>
<feBlend mode="normal" in2="BackgroundImageFix" result="effect1_dropShadow_43_91"/>
<feBlend mode="normal" in="SourceGraphic" in2="effect1_dropShadow_43_91" result="shape"/>
</filter>
<clipPath id="clip0_43_91">
<rect width="279" height="313" fill="white" transform="translate(65 29)"/>
</clipPath>
</defs>
</svg>
